<svg width="53" height="35" viewBox="0 0 53 35" fill="none" xmlns="http://www.w3.org/2000/svg">
<path d="M13.1581 18.8738V22.6002H16.1736C16.8265 22.6002 17.3506 22.5316 17.7458 22.3946C18.1582 22.2575 18.4589 22.0519 18.6479 21.7778C18.854 21.4865 18.9571 21.1267 18.9571 20.6984C18.9571 20.2872 18.8712 19.9531 18.6994 19.6961C18.5276 19.422 18.2527 19.2164 17.8747 19.0794C17.5138 18.9423 17.0069 18.8738 16.354 18.8738H13.1581Z" fill="black"/>
<path fill-rule="evenodd" clip-rule="evenodd" d="M0.513826 2.60005C0 3.61867 0 4.95213 0 7.61905V27.3016C0 29.9685 0 31.302 0.513826 32.3206C0.965801 33.2166 1.68699 33.9451 2.57404 34.4016C3.58249 34.9206 4.90261 34.9206 7.54286 34.9206H44.8381C47.4783 34.9206 48.7985 34.9206 49.8069 34.4016C50.694 33.9451 51.4151 33.2166 51.8671 32.3206C52.3809 31.302 52.381 29.9685 52.381 27.3016V7.61905C52.381 4.95213 52.3809 3.61867 51.8671 2.60005C51.4151 1.70404 50.694 0.975557 49.8069 0.519017C48.7985 0 47.4783 0 44.8381 0H7.54286C4.90261 0 3.58249 0 2.57404 0.519017C1.68699 0.975557 0.965801 1.70404 0.513826 2.60005ZM7.33333 8.46561V26.455H17.1272C18.9142 26.455 20.3919 26.2323 21.5603 25.7868C22.7286 25.3414 23.5963 24.7075 24.1634 23.8851C24.7476 23.0456 25.0397 22.0433 25.0397 20.8783C25.0397 19.7647 24.7733 18.8138 24.2407 18.0257C23.7252 17.2205 22.9262 16.6037 21.8438 16.1754C20.7785 15.747 19.4211 15.5329 17.7716 15.5329H13.1581V12.8602H23.5706V8.46561H7.33333ZM32.8818 18.6693L39.3767 26.455H46.619L39.0474 17.4692L45.8458 8.46561H39.2736L32.8818 17.1458V8.46561H26.9282V26.455H32.8818V18.6693Z" fill="black"/>
</svg>
