<svg width="20" height="19" viewBox="0 0 20 19" fill="none" xmlns="http://www.w3.org/2000/svg">
<path d="M13 0.420654C13.5046 0.420495 13.9906 0.611061 14.3605 0.954151C14.7305 1.29724 14.9572 1.7675 14.995 2.27065L15 2.42065C15 2.66559 15.09 2.90199 15.2527 3.08503C15.4155 3.26806 15.6397 3.385 15.883 3.41365L16 3.42065H17C17.7652 3.42061 18.5015 3.71298 19.0583 4.23794C19.615 4.7629 19.9501 5.48076 19.995 6.24465L20 6.42065V15.4207C20 16.1859 19.7077 16.9222 19.1827 17.4789C18.6578 18.0357 17.9399 18.3708 17.176 18.4157L17 18.4207H3C2.23479 18.4207 1.49849 18.1283 0.941739 17.6034C0.384993 17.0784 0.0498925 16.3605 0.00500012 15.5967L4.66025e-09 15.4207V6.42065C-4.26217e-05 5.65544 0.292325 4.91914 0.817284 4.36239C1.34224 3.80565 2.06011 3.47055 2.824 3.42565L3 3.42065H4C4.26522 3.42065 4.51957 3.3153 4.70711 3.12776C4.89464 2.94022 5 2.68587 5 2.42065C4.99984 1.91608 5.19041 1.43009 5.5335 1.06011C5.87659 0.690125 6.34685 0.463498 6.85 0.425655L7 0.420654H13ZM10 7.42065C9.25659 7.4206 8.53964 7.69656 7.98813 8.19504C7.43662 8.69353 7.08984 9.37903 7.015 10.1187L7.004 10.2707L7 10.4207L7.004 10.5707C7.03335 11.1569 7.23402 11.7216 7.58117 12.1949C7.92832 12.6682 8.40669 13.0293 8.95702 13.2334C9.50735 13.4375 10.1055 13.4757 10.6773 13.3433C11.2491 13.2108 11.7695 12.9135 12.174 12.4882C12.5786 12.0629 12.8494 11.5282 12.9531 10.9505C13.0568 10.3727 12.9887 9.77728 12.7572 9.23786C12.5258 8.69844 12.1412 8.23876 11.6511 7.91575C11.1611 7.59275 10.587 7.42061 10 7.42065Z" fill="black"/>
</svg>
